<?xml version="1.0"?>
<svg version="1.1" xmlns="http://www.w3.org/2000/svg" width="405" height="41" style=""><path fill="#178fe6" d="M15.99365234375,38.58447265625q0-0.1083984375,0.072265625-0.767822265625t0.189697265625-1.60791015625t0.261962890625-2.04150390625t0.2529296875-2.068603515625t0.189697265625-1.71630859375t0.081298828125-0.99365234375q-0.14453125-0.072265625-0.352294921875-0.207763671875t-0.207763671875-0.316162109375q0-0.2529296875,0.243896484375-0.406494140625t0.424560546875-0.225830078125q0.072265625-0.92138671875,0.1806640625-2.5654296875t0.334228515625-3.550048828125t0.63232421875-3.8662109375t1.074951171875-3.55908203125t1.60791015625-2.610595703125t2.3125-1.01171875t2.2763671875,0.8671875t1.472412109375,2.25830078125t0.8671875,3.08935546875t0.45166015625,3.37841796875t0.189697265625,3.1435546875t0.072265625,2.3486328125q0.0361328125,0.56005859375,0.27099609375,0.749755859375t0.514892578125,0.261962890625t0.505859375,0.16259765625t0.225830078125,0.45166015625q0,0.41552734375-0.505859375,0.578125t-0.794921875,0.19873046875q0.1806640625,2.25830078125,0.496826171875,4.4443359375t0.840087890625,4.408203125q0.072265625,0.41552734375,0.19873046875,0.840087890625t0.12646484375,0.822021484375q0,0.2890625-0.19873046875,0.478759765625t-0.514892578125,0.298095703125t-0.63232421875,0.14453125t-0.532958984375,0.0361328125q-0.81298828125,0-1.373046875-0.30712890625t-0.74072265625-1.17431640625q-0.48779296875-2.33056640625-0.95751953125-4.89599609375q-0.3974609375-2.22216796875-0.3974609375-4.31787109375q0-0.3251953125,0.01806640625-0.650390625q-1.517578125,0-3.05322265625,0.072265625t-2.94482421875,0.5419921875q-0.0361328125,0.48779296875-0.1806640625,1.8427734375t-0.3251953125,2.90869140625t-0.370361328125,2.971923828125t-0.225830078125,2.014404296875q-0.0361328125,0.2529296875-0.370361328125,0.478759765625t-0.72265625,0.243896484375t-0.6865234375-0.243896484375t-0.298095703125-0.930419921875z M19.3720703125,27.63623046875q1.4091796875-0.3251953125,2.827392578125-0.37939453125t2.863525390625-0.12646484375q-0.072265625-0.45166015625-0.0361328125-0.930419921875t0.0361328125-0.966552734375q0-1.06591796875-0.05419921875-2.47509765625t-0.16259765625-2.8544921875t-0.280029296875-2.845458984375t-0.388427734375-2.4931640625t-0.460693359375-1.743408203125t-0.532958984375-0.650390625q-0.56005859375,0.0361328125-1.056884765625,0.966552734375t-0.9033203125,2.36669921875t-0.74072265625,3.2158203125t-0.56005859375,3.477783203125t-0.370361328125,3.16162109375t-0.1806640625,2.2763671875z M34.216694335938,32.3515625l0-0.52392578125q0-0.650390625,0.0361328125-1.228515625q0.0361328125-0.81298828125,0.0361328125-1.3369140625q0-0.2890625,0.0361328125-0.659423828125t0.1806640625-0.587158203125q0.1806640625-0.1806640625,0.424560546875-0.370361328125t0.532958984375-0.189697265625q0.92138671875,0,1.4453125,0.207763671875t0.56005859375,0.858154296875l0.072265625,0.56005859375q0.3251953125-0.77685546875,0.8671875-1.924072265625t1.255615234375-2.18603515625t1.60791015625-1.7705078125t1.887939453125-0.731689453125q0.92138671875,0,1.517578125,0.8671875t0.948486328125,2.213134765625t0.496826171875,2.9990234375t0.19873046875,3.242919921875t0.072265625,2.899658203125t0.12646484375,1.978271484375q0.072265625,0.56005859375,0.243896484375,1.183349609375t0.171630859375,1.147216796875q0,0.14453125-0.207763671875,0.280029296875t-0.442626953125,0.225830078125t-0.478759765625,0.14453125t-0.352294921875,0.05419921875q-0.70458984375,0-1.002685546875-1.056884765625t-0.370361328125-2.646728515625t-0.072265625-3.441650390625t-0.12646484375-3.441650390625t-0.514892578125-2.646728515625t-1.237548828125-1.093017578125q-0.77685546875,0-1.60791015625,1.002685546875t-1.42724609375,2.664794921875q-0.578125,1.662109375-0.794921875,3.77587890625q-0.072265625,0.66845703125-0.072265625,1.3369140625q0,1.46337890625,0.30712890625,2.9267578125q0.0361328125,0.2529296875-0.207763671875,0.37939453125t-0.605224609375,0.19873046875t-0.731689453125,0.09033203125t-0.569091796875,0.01806640625q-0.70458984375,0-1.129150390625-0.496826171875t-0.659423828125-1.273681640625t-0.316162109375-1.743408203125t-0.099365234375-1.906005859375z M50.633095703125,31.82763671875q0-1.662109375,0.388427734375-3.260986328125t0.659423828125-3.188720703125q0.072265625-0.41552734375,0.569091796875-0.514892578125t0.840087890625-0.099365234375q0.59619140625,0,0.95751953125,0.1806640625q0.14453125,0.072265625,0.27099609375,0.16259765625t0.12646484375,0.23486328125q0,1.5537109375-0.370361328125,3.03515625t-0.370361328125,3.1435546875q0,0.56005859375,0.081298828125,1.056884765625t0.153564453125,0.984619140625l0.1083984375,0.52392578125q0,0.14453125,0.01806640625,0.2529296875t0.05419921875,0.2529296875q0,0.3251953125-0.460693359375,0.442626953125t-0.803955078125,0.117431640625q-0.52392578125,0-0.966552734375-0.207763671875t-0.695556640625-0.713623046875l-0.2529296875-0.52392578125q-0.216796875-0.41552734375-0.216796875-0.930419921875t-0.09033203125-0.948486328125z M51.789345703125,20.95166015625l0-0.34326171875q0-0.84912109375,0.424560546875-1.517578125t1.273681640625-0.66845703125q0.1083984375,0,0.207763671875,0.01806640625t0.207763671875,0.01806640625q0.216796875,0.0361328125,0.569091796875,0.171630859375t0.352294921875,0.424560546875l0,0.0361328125q-0.072265625,0.14453125-0.09033203125,0.298095703125t-0.09033203125,0.261962890625l0.0361328125-0.0361328125q-0.216796875,0.56005859375-0.352294921875,0.9033203125t-0.298095703125,0.551025390625t-0.406494140625,0.298095703125t-0.695556640625,0.09033203125q-0.072265625,0-0.2529296875-0.01806640625t-0.388427734375-0.072265625t-0.352294921875-0.14453125t-0.14453125-0.27099609375z M58.567319335937,27.735595703125q-0.045166015625-0.605224609375,0.072265625-1.111083984375t0.4697265625-0.822021484375t1.129150390625-0.316162109375q0.1806640625,0,0.442626953125,0.045166015625t0.514892578125,0.117431640625t0.424560546875,0.216796875t0.171630859375,0.3974609375l0,2.04150390625q0.70458984375-0.81298828125,1.53564453125-1.165283203125t1.89697265625-0.352294921875q0.81298828125,0,1.60791015625,0.370361328125t1.49951171875,0.984619140625t1.219482421875,1.35498046875t0.749755859375,1.4814453125q0.14453125-0.66845703125,0.3251953125-1.635009765625t0.532958984375-1.851806640625t0.930419921875-1.517578125t1.53564453125-0.63232421875q1.02978515625,0,1.734375,0.74072265625t1.147216796875,1.924072265625t0.66845703125,2.646728515625t0.334228515625,2.890625t0.1083984375,2.664794921875l0,1.942138671875q0,0.216796875-0.16259765625,0.352294921875t-0.406494140625,0.207763671875t-0.505859375,0.09033203125t-0.406494140625,0.01806640625q-0.56005859375,0-1.020751953125-0.171630859375t-0.460693359375-0.876220703125l0-1.6259765625t-0.0361328125-2.104736328125t-0.12646484375-2.25830078125t-0.23486328125-2.050537109375t-0.370361328125-1.4814453125t-0.551025390625-0.578125q-0.45166015625,0-0.650390625,0.505859375t-0.334228515625,1.28271484375t-0.207763671875,1.64404296875t-0.19873046875,1.64404296875t-0.406494140625,1.273681640625t-0.767822265625,0.496826171875q-0.52392578125,0-0.92138671875-0.496826171875t-0.785888671875-1.237548828125t-0.77685546875-1.58984375t-0.858154296875-1.58984375q-0.4697265625-0.7587890625-1.01171875-1.228515625q-0.48779296875-0.45166015625-1.10205078125-0.43359375l-0.09033203125,0q-0.81298828125,0.0361328125-1.273681640625,0.587158203125t-0.70458984375,1.345947265625t-0.298095703125,1.707275390625t-0.05419921875,1.598876953125q0,0.650390625,0.1083984375,1.517578125q0.072265625,0.578125,0.072265625,1.10205078125q0,0.27099609375-0.01806640625,0.52392578125q-0.05419921875,0.7587890625-0.406494140625,1.273681640625t-1.309814453125,0.514892578125q-0.361328125,0-0.9033203125-0.072265625t-0.72265625-0.48779296875q-0.41552734375-0.74072265625-0.63232421875-1.869873046875t-0.3251953125-2.33056640625t-0.12646484375-2.384765625t-0.01806640625-2.032470703125q0-0.59619140625-0.045166015625-1.201416015625z M81.35212890625,33.001953125q0-1.2646484375,0.280029296875-2.98095703125t0.948486328125-3.251953125t1.761474609375-2.610595703125t2.755126953125-1.074951171875q1.5537109375,0,2.33056640625,0.894287109375t0.77685546875,2.411865234375q0,0.99365234375-0.370361328125,2.177001953125t-1.056884765625,2.240234375t-1.6259765625,1.761474609375t-2.095703125,0.70458984375l-0.4697265625-0.0361328125q0,0.48779296875,0.14453125,1.309814453125t0.424560546875,1.635009765625t0.72265625,1.42724609375t1.074951171875,0.6142578125q0.92138671875,0,1.7705078125-0.74072265625t1.60791015625-1.64404296875t1.4091796875-1.64404296875t1.1923828125-0.74072265625q0.2890625,0,0.59619140625,0.09033203125t0.34326171875,0.505859375q0,0.2529296875-0.135498046875,0.41552734375t-0.243896484375,0.361328125q-0.56005859375,0.95751953125-1.219482421875,1.82470703125t-1.490478515625,1.57177734375t-1.815673828125,1.111083984375t-2.177001953125,0.406494140625q-1.5537109375,0-2.58349609375-0.551025390625t-1.662109375-1.4814453125t-0.912353515625-2.14990234375t-0.280029296875-2.556396484375z M84.586015625,31.62890625l0.505859375,0.45166015625q0.361328125,0.3251953125,0.72265625,0.14453125t0.650390625-0.659423828125t0.532958984375-1.183349609375t0.43359375-1.4453125t0.280029296875-1.4453125t0.09033203125-1.17431640625l0-0.6142578125t-0.05419921875-0.650390625t-0.189697265625-0.514892578125t-0.424560546875-0.261962890625q-0.09033203125-0.01806640625-0.16259765625-0.01806640625q-0.6142578125,0-1.0478515625,0.77685546875q-0.4697265625,0.8671875-0.7587890625,2.104736328125t-0.41552734375,2.538330078125t-0.16259765625,1.951171875z M96.449682617188,27.60009765625q0-0.74072265625,0.43359375-1.273681640625t1.056884765625-0.8671875t1.364013671875-0.496826171875t1.373046875-0.16259765625q0.48779296875,0,1.30078125,0.14453125t1.58984375,0.43359375t1.345947265625,0.7587890625t0.569091796875,1.10205078125q0,0.2890625-0.216796875,0.514892578125t-0.45166015625,0.225830078125q-0.48779296875,0-0.88525390625-0.316162109375t-0.822021484375-0.66845703125t-0.930419921875-0.66845703125t-1.13818359375-0.316162109375t-1.147216796875,0.406494140625t-0.514892578125,1.074951171875q0,1.10205078125,0.77685546875,2.158935546875t1.707275390625,2.22216796875t1.707275390625,2.447998046875t0.77685546875,2.83642578125q0,0.66845703125-0.280029296875,1.129150390625t-0.74072265625,0.749755859375t-1.038818359375,0.442626953125t-1.1201171875,0.153564453125q-0.59619140625,0-1.39111328125-0.280029296875t-1.49951171875-0.74072265625t-1.183349609375-1.074951171875t-0.478759765625-1.28271484375q0-0.3251953125,0.460693359375-0.41552734375t0.677490234375-0.09033203125q0.1083984375,0,0.334228515625,0.072265625t0.442626953125,0.16259765625t0.388427734375,0.19873046875t0.135498046875,0.23486328125q0.1806640625,0.216796875,0.551025390625,0.641357421875t0.74072265625,0.6865234375t0.650390625,0.189697265625t0.280029296875-0.81298828125q0-1.4091796875-0.7587890625-2.592529296875t-1.653076171875-2.3125t-1.653076171875-2.240234375t-0.7587890625-2.375732421875z M109.18053710937,34.23046875l0-1.6982421875q0-0.92138671875,0.045166015625-2.610595703125t0.117431640625-3.70361328125t0.19873046875-4.200439453125t0.2890625-4.128173828125t0.388427734375-3.477783203125t0.514892578125-2.2763671875q0.1806640625-0.41552734375,0.59619140625-0.52392578125t0.81298828125-0.1083984375q0.63232421875,0,1.111083984375,0.280029296875t0.478759765625,1.020751953125l-0.3251953125,0.361328125q-0.63232421875,4.17333984375-0.81298828125,8.3828125t-0.2529296875,8.4189453125q0.45166015625-0.70458984375,1.020751953125-1.382080078125t1.2646484375-1.201416015625t1.49951171875-0.840087890625t1.761474609375-0.316162109375q1.228515625,0,2.032470703125,0.74072265625t1.327880859375,1.924072265625t0.77685546875,2.646728515625t0.388427734375,2.9267578125t0.189697265625,2.773193359375t0.16259765625,2.177001953125q-0.34326171875,0.4697265625-1.01171875,0.4697265625l-0.05419921875,0q-0.2890625,0-0.63232421875-0.072265625t-0.45166015625-0.361328125l0.0361328125,0.0361328125q-0.2529296875-0.56005859375-0.34326171875-1.616943359375t-0.14453125-2.33056640625t-0.189697265625-2.610595703125t-0.406494140625-2.4208984375t-0.794921875-1.78857421875t-1.4091796875-0.74072265625l-0.1083984375,0q-1.06591796875,0-1.78857421875,0.650390625q-0.7587890625,0.6865234375-1.228515625,1.806640625t-0.72265625,2.4931640625t-0.388427734375,2.646728515625t-0.207763671875,2.3125t-0.1806640625,1.526611328125q-0.1083984375,0.41552734375-0.641357421875,0.551025390625t-0.912353515625,0.135498046875q-0.88525390625,0-1.4453125-0.505859375q-0.41552734375-0.99365234375-0.48779296875-2.47509765625t-0.072265625-2.890625z M133.3956640625,38.58447265625q0-0.1083984375,0.072265625-0.767822265625t0.189697265625-1.60791015625t0.261962890625-2.04150390625t0.2529296875-2.068603515625t0.189697265625-1.71630859375t0.081298828125-0.99365234375q-0.14453125-0.072265625-0.352294921875-0.207763671875t-0.207763671875-0.316162109375q0-0.2529296875,0.243896484375-0.406494140625t0.424560546875-0.225830078125q0.072265625-0.92138671875,0.1806640625-2.5654296875t0.334228515625-3.550048828125t0.63232421875-3.8662109375t1.074951171875-3.55908203125t1.60791015625-2.610595703125t2.3125-1.01171875t2.2763671875,0.8671875t1.472412109375,2.25830078125t0.8671875,3.08935546875t0.45166015625,3.37841796875t0.189697265625,3.1435546875t0.072265625,2.3486328125q0.0361328125,0.56005859375,0.27099609375,0.749755859375t0.514892578125,0.261962890625t0.505859375,0.16259765625t0.225830078125,0.45166015625q0,0.41552734375-0.505859375,0.578125t-0.794921875,0.19873046875q0.1806640625,2.25830078125,0.496826171875,4.4443359375t0.840087890625,4.408203125q0.072265625,0.41552734375,0.19873046875,0.840087890625t0.12646484375,0.822021484375q0,0.2890625-0.19873046875,0.478759765625t-0.514892578125,0.298095703125t-0.63232421875,0.14453125t-0.532958984375,0.0361328125q-0.81298828125,0-1.373046875-0.30712890625t-0.74072265625-1.17431640625q-0.48779296875-2.33056640625-0.95751953125-4.89599609375q-0.3974609375-2.22216796875-0.3974609375-4.31787109375q0-0.3251953125,0.01806640625-0.650390625q-1.517578125,0-3.05322265625,0.072265625t-2.94482421875,0.5419921875q-0.0361328125,0.48779296875-0.1806640625,1.8427734375t-0.3251953125,2.90869140625t-0.370361328125,2.971923828125t-0.225830078125,2.014404296875q-0.0361328125,0.2529296875-0.370361328125,0.478759765625t-0.72265625,0.243896484375t-0.6865234375-0.243896484375t-0.298095703125-0.930419921875z M136.77408203125,27.63623046875q1.4091796875-0.3251953125,2.827392578125-0.37939453125t2.863525390625-0.12646484375q-0.072265625-0.45166015625-0.0361328125-0.930419921875t0.0361328125-0.966552734375q0-1.06591796875-0.05419921875-2.47509765625t-0.16259765625-2.8544921875t-0.280029296875-2.845458984375t-0.388427734375-2.4931640625t-0.460693359375-1.743408203125t-0.532958984375-0.650390625q-0.56005859375,0.0361328125-1.056884765625,0.966552734375t-0.9033203125,2.36669921875t-0.74072265625,3.2158203125t-0.56005859375,3.477783203125t-0.370361328125,3.16162109375t-0.1806640625,2.2763671875z M151.61870605469,32.3515625l0-0.52392578125q0-0.650390625,0.0361328125-1.228515625q0.0361328125-0.81298828125,0.0361328125-1.3369140625q0-0.2890625,0.0361328125-0.659423828125t0.1806640625-0.587158203125q0.1806640625-0.1806640625,0.424560546875-0.370361328125t0.532958984375-0.189697265625q0.92138671875,0,1.4453125,0.207763671875t0.56005859375,0.858154296875l0.072265625,0.56005859375q0.3251953125-0.77685546875,0.8671875-1.924072265625t1.255615234375-2.18603515625t1.60791015625-1.7705078125t1.887939453125-0.731689453125q0.92138671875,0,1.517578125,0.8671875t0.948486328125,2.213134765625t0.496826171875,2.9990234375t0.19873046875,3.242919921875t0.072265625,2.899658203125t0.12646484375,1.978271484375q0.072265625,0.56005859375,0.243896484375,1.183349609375t0.171630859375,1.147216796875q0,0.14453125-0.207763671875,0.280029296875t-0.442626953125,0.225830078125t-0.478759765625,0.14453125t-0.352294921875,0.05419921875q-0.70458984375,0-1.002685546875-1.056884765625t-0.370361328125-2.646728515625t-0.072265625-3.441650390625t-0.12646484375-3.441650390625t-0.514892578125-2.646728515625t-1.237548828125-1.093017578125q-0.77685546875,0-1.60791015625,1.002685546875t-1.42724609375,2.664794921875q-0.578125,1.662109375-0.794921875,3.77587890625q-0.072265625,0.66845703125-0.072265625,1.3369140625q0,1.46337890625,0.30712890625,2.9267578125q0.0361328125,0.2529296875-0.207763671875,0.37939453125t-0.605224609375,0.19873046875t-0.731689453125,0.09033203125t-0.569091796875,0.01806640625q-0.70458984375,0-1.129150390625-0.496826171875t-0.659423828125-1.273681640625t-0.316162109375-1.743408203125t-0.099365234375-1.906005859375z M168.03510742188,32.26123046875q0-1.228515625,0.334228515625-2.36669921875t1.002685546875-2.032470703125t1.671142578125-1.42724609375t2.321533203125-0.532958984375q0.81298828125,0,1.797607421875,0.243896484375t1.851806640625,0.72265625t1.4453125,1.219482421875t0.578125,1.6982421875q0,0.45166015625-0.153564453125,0.6865234375t-0.623291015625,0.23486328125l-0.19873046875-0.0361328125q0.52392578125,1.4091796875,0.9033203125,2.890625t0.74072265625,2.962890625q0.14453125,0.2890625,0.216796875,0.514892578125t0.072265625,0.442626953125q0,0.2890625-0.16259765625,0.478759765625t-0.424560546875,0.280029296875t-0.5419921875,0.12646484375t-0.496826171875,0.0361328125q-0.77685546875,0-1.165283203125-0.27099609375t-0.56005859375-0.74072265625t-0.207763671875-1.056884765625t-0.14453125-1.183349609375q-0.216796875,0.70458984375-0.569091796875,1.373046875t-0.8310546875,1.201416015625t-1.129150390625,0.84912109375t-1.46337890625,0.316162109375q-1.1923828125,0-2.00537109375-0.6865234375t-1.309814453125-1.689208984375t-0.72265625-2.140869140625t-0.225830078125-2.11376953125z M170.60053710938,32.00830078125q0,0.66845703125,0.09033203125,1.4091796875t0.298095703125,1.46337890625t0.532958984375,1.364013671875t0.81298828125,1.129150390625q0.88525390625-0.95751953125,1.309814453125-2.33056640625t0.7587890625-2.646728515625t0.7587890625-2.18603515625t1.309814453125-0.912353515625q0.56005859375,0,0.939453125,0.19873046875q-0.1806640625-0.45166015625-0.59619140625-0.876220703125t-0.930419921875-0.77685546875t-1.06591796875-0.578125t-1.038818359375-0.225830078125q-0.14453125,0-0.334228515625,0.045166015625t-0.298095703125,0.009033203125q-0.74072265625,0.216796875-1.219482421875,0.749755859375t-0.77685546875,1.255615234375t-0.424560546875,1.4814453125t-0.12646484375,1.42724609375z M183.71078613281,32.3515625l0-0.52392578125q0-0.650390625,0.0361328125-1.228515625q0.0361328125-0.81298828125,0.0361328125-1.3369140625q0-0.2890625,0.0361328125-0.659423828125t0.1806640625-0.587158203125q0.1806640625-0.1806640625,0.424560546875-0.370361328125t0.532958984375-0.189697265625q0.92138671875,0,1.4453125,0.207763671875t0.56005859375,0.858154296875l0.072265625,0.56005859375q0.3251953125-0.77685546875,0.8671875-1.924072265625t1.255615234375-2.18603515625t1.60791015625-1.7705078125t1.887939453125-0.731689453125q0.92138671875,0,1.517578125,0.8671875t0.948486328125,2.213134765625t0.496826171875,2.9990234375t0.19873046875,3.242919921875t0.072265625,2.899658203125t0.12646484375,1.978271484375q0.072265625,0.56005859375,0.243896484375,1.183349609375t0.171630859375,1.147216796875q0,0.14453125-0.207763671875,0.280029296875t-0.442626953125,0.225830078125t-0.478759765625,0.14453125t-0.352294921875,0.05419921875q-0.70458984375,0-1.002685546875-1.056884765625t-0.370361328125-2.646728515625t-0.072265625-3.441650390625t-0.12646484375-3.441650390625t-0.514892578125-2.646728515625t-1.237548828125-1.093017578125q-0.77685546875,0-1.60791015625,1.002685546875t-1.42724609375,2.664794921875q-0.578125,1.662109375-0.794921875,3.77587890625q-0.072265625,0.66845703125-0.072265625,1.3369140625q0,1.46337890625,0.30712890625,2.9267578125q0.0361328125,0.2529296875-0.207763671875,0.37939453125t-0.605224609375,0.19873046875t-0.731689453125,0.09033203125t-0.569091796875,0.01806640625q-0.70458984375,0-1.129150390625-0.496826171875t-0.659423828125-1.273681640625t-0.316162109375-1.743408203125t-0.099365234375-1.906005859375z M200.1271875,32.04443359375q0-1.4091796875,0.298095703125-2.556396484375t0.948486328125-1.942138671875t1.707275390625-1.237548828125t2.574462890625-0.442626953125q0.84912109375,0,1.734375,0.225830078125t1.517578125,0.840087890625q0-0.361328125,0.072265625-1.490478515625t0.1806640625-2.628662109375t0.225830078125-3.1435546875t0.207763671875-3.05322265625t0.16259765625-2.36669921875t0.1083984375-1.083984375q0.1806640625-0.52392578125,0.66845703125-0.623291015625t0.92138671875-0.099365234375q1.13818359375,0,1.400146484375,0.361328125t0.261962890625,1.4453125q0,3.95654296875-0.352294921875,7.876953125t-0.352294921875,7.876953125q0,2.54736328125,0.099365234375,5.121826171875t0.713623046875,5.067626953125l0.19873046875,0.1806640625l0.1083984375,0.3251953125l-0.27099609375,0.41552734375q-0.6865234375,0.43359375-1.58984375,0.43359375l-0.072265625,0q-0.92138671875,0-1.6982421875-0.43359375q-0.2890625-0.1806640625-0.478759765625-1.074951171875t-0.298095703125-1.96923828125t-0.16259765625-2.068603515625t-0.09033203125-1.4091796875q-0.63232421875,1.4453125-1.725341796875,2.484130859375t-2.755126953125,1.038818359375q-1.30078125,0-2.1318359375-0.56005859375t-1.291748046875-1.42724609375t-0.650390625-1.942138671875t-0.189697265625-2.140869140625z M202.31322265625,32.15283203125q0,0.41552734375,0.099365234375,1.228515625t0.316162109375,1.6259765625t0.605224609375,1.4453125t1.020751953125,0.63232421875q0.84912109375-0.41552734375,1.53564453125-1.382080078125t1.183349609375-2.1318359375t0.77685546875-2.33056640625t0.280029296875-2.014404296875q0-1.06591796875-0.77685546875-1.7705078125t-1.86083984375-0.70458984375q-0.3251953125,0-0.659423828125,0.12646484375t-0.623291015625,0.2890625q-0.66845703125,0.63232421875-1.038818359375,1.147216796875t-0.56005859375,1.06591796875t-0.243896484375,1.219482421875t-0.05419921875,1.5537109375z"/><path fill="#" d=""/></svg>
